<?xml version="1.0" standalone="no"?>
<!DOCTYPE svg PUBLIC "-//W3C//DTD SVG 20010904//EN"
 "http://www.w3.org/TR/2001/REC-SVG-20010904/DTD/svg10.dtd">
<svg version="1.0" xmlns="http://www.w3.org/2000/svg"
 width="512.000000pt" height="512.000000pt" viewBox="0 0 512.000000 512.000000"
 preserveAspectRatio="xMidYMid meet">

<g transform="translate(0.000000,512.000000) scale(0.100000,-0.100000)"
fill="#ffffff" stroke="none">
<path d="M2495 4991 c-11 -5 -573 -502 -1248 -1106 -1327 -1187 -1259 -1121
-1243 -1208 18 -99 155 -146 229 -79 12 10 114 101 227 202 l205 183 5 -1294
5 -1294 31 -65 c38 -79 97 -140 172 -177 l57 -28 470 0 470 0 55 26 c73 35
126 89 164 169 l31 65 3 685 c2 467 6 688 14 697 8 10 97 13 419 13 l408 0 15
-22 c14 -20 16 -102 16 -695 0 -662 0 -673 21 -730 30 -80 113 -162 193 -192
57 -21 68 -22 510 -19 l451 3 49 24 c86 43 169 149 207 266 11 32 15 291 19
1297 l5 1258 223 -199 c140 -126 236 -204 258 -211 101 -34 200 56 180 163 -4
19 -21 49 -39 68 -82 84 -2441 2185 -2465 2196 -31 14 -88 16 -117 4z m904
-1076 l761 -680 0 -1368 c0 -1349 0 -1368 -20 -1407 -11 -22 -29 -44 -39 -50
-13 -6 -157 -10 -398 -10 -326 0 -382 2 -401 16 l-22 15 0 662 c0 554 -2 672
-15 720 -27 103 -89 177 -190 224 l-60 28 -455 0 -455 0 -62 -29 c-73 -33
-144 -103 -176 -174 -22 -47 -22 -52 -25 -737 -2 -687 -2 -690 -23 -707 -19
-17 -55 -18 -415 -18 l-393 0 -28 24 -28 24 -3 1396 -2 1395 801 715 801 716
43 -37 c24 -21 386 -344 804 -718z"/>
</g>
</svg>
