<svg xmlns="http://www.w3.org/2000/svg" version="1.1" xmlns:xlink="http://www.w3.org/1999/xlink" xmlns:svgjs="http://svgjs.dev/svgjs" width="1000" height="1000" viewBox="0 0 1000 1000"><rect width="1000" height="1000" fill="#ffffff"></rect><g transform="matrix(0.7,0,0,0.7,149.57576798018056,423.7765917187129)"><svg viewBox="0 0 396 86" data-background-color="#ffffff" preserveAspectRatio="xMidYMid meet" height="217" width="1000" xmlns="http://www.w3.org/2000/svg" xmlns:xlink="http://www.w3.org/1999/xlink"><defs></defs><g id="tight-bounds" transform="matrix(1,0,0,1,0.23999565505437204,0.1547933653106668)"><svg viewBox="0 0 395.52 85.69041326937868" height="85.69041326937868" width="395.52"><g><svg viewBox="0 0 495.36728743115793 107.32258186717996" height="85.69041326937868" width="395.52"><g><rect width="7.003228067790721" height="93.18892781520691" x="74.51100159428158" y="7.066827025986527" fill="#454fbf" opacity="1" stroke-width="0" stroke="transparent" fill-opacity="1" class="rect-o-0" data-fill-palette-color="primary" rx="1%" id="o-0" data-palette-color="#454fbf"></rect></g><g transform="matrix(1,0,0,1,99.84728743115795,14.832571010587102)"><svg viewBox="0 0 395.52 77.65743984600576" height="77.65743984600576" width="395.52"><g><svg viewBox="0 0 395.52 77.65743984600576" height="77.65743984600576" width="395.52"><g><svg viewBox="0 0 395.52 77.65743984600576" height="77.65743984600576" width="395.52"><g transform="matrix(1,0,0,1,0,0)"><svg width="395.52" viewBox="-0.45000001788139343 -35.400001525878906 207.7899932861328 40.80000305175781" height="77.65743984600576" data-palette-color="#454fbf"><path d="M9.6 5.4Q6.5 5.4 3.88 4.08 1.25 2.75-0.45 0.35L-0.45 0.35 2.35-3.05Q5.25 1.1 9.55 1.1L9.55 1.1Q15.6 1.1 15.6-6L15.6-6 15.6-30.65 3-30.65 3-35 20.6-35 20.6-6.25Q20.6-0.45 17.82 2.48 15.05 5.4 9.6 5.4L9.6 5.4ZM55.05-35L60-35 60 0 55.2 0 55.2-4.95Q51.65 0.4 43.8 0.4L43.8 0.4Q37.55 0.4 34.02-3.4 30.5-7.2 30.5-14.25L30.5-14.25 30.5-35 35.5-35 35.5-14.4Q35.5-9.35 38-6.7 40.5-4.05 44.85-4.05L44.85-4.05Q49.55-4.05 52.3-6.85 55.05-9.65 55.05-15.15L55.05-15.15 55.05-35ZM99.34 0L93.9 0 86.34-10.75Q84.95-10.65 84.15-10.65L84.15-10.65 75.5-10.65 75.5 0 70.5 0 70.5-35 84.15-35Q90.95-35 94.84-31.75 98.75-28.5 98.75-22.8L98.75-22.8Q98.75-18.75 96.75-15.9 94.75-13.05 91.05-11.75L91.05-11.75 99.34 0ZM84-14.9Q88.75-14.9 91.25-16.95 93.75-19 93.75-22.8L93.75-22.8Q93.75-26.6 91.25-28.63 88.75-30.65 84-30.65L84-30.65 75.5-30.65 75.5-14.9 84-14.9ZM131.09-7.2L131.09-17.7 135.89-17.7 135.89 0 131.49 0 131.49-2.35Q127.64 0.4 121.74 0.4L121.74 0.4Q116.99 0.4 112.92-1.7 108.84-3.8 106.42-7.83 103.99-11.85 103.99-17.35L103.99-17.35Q103.99-22.55 106.42-26.65 108.84-30.75 113.12-33.08 117.39-35.4 122.74-35.4L122.74-35.4Q126.94-35.4 130.37-34.02 133.79-32.65 136.19-30L136.19-30 133.09-26.9Q128.89-30.95 122.94-30.95L122.94-30.95Q118.94-30.95 115.77-29.2 112.59-27.45 110.79-24.35 108.99-21.25 108.99-17.35L108.99-17.35Q108.99-13.2 110.82-10.15 112.64-7.1 115.64-5.53 118.64-3.95 122.14-3.95L122.14-3.95Q124.59-3.95 126.92-4.78 129.24-5.6 131.09-7.2L131.09-7.2ZM169.79-7.55L171.49-3.65Q169.24-1.75 165.59-0.68 161.94 0.4 157.64 0.4L157.64 0.4Q152.84 0.4 149.49-0.88 146.14-2.15 144.44-4.4 142.74-6.65 142.74-9.6L142.74-9.6Q142.74-12.6 144.47-14.78 146.19-16.95 148.94-17.9L148.94-17.9Q146.74-18.9 145.49-20.93 144.24-22.95 144.24-25.6L144.24-25.6Q144.24-28.35 145.81-30.55 147.39-32.75 150.59-34.08 153.79-35.4 158.39-35.4L158.39-35.4Q161.64-35.4 164.72-34.7 167.79-34 170.04-32.7L170.04-32.7 168.59-28.7Q164.09-31.1 158.59-31.1L158.59-31.1Q154.04-31.1 151.64-29.48 149.24-27.85 149.24-25.25L149.24-25.25Q149.24-22.65 151.09-21.25 152.94-19.85 156.39-19.85L156.39-19.85 165.39-19.85 165.39-15.55 156.19-15.55Q152.24-15.55 149.99-14.15 147.74-12.75 147.74-9.95L147.74-9.95Q147.74-7.1 150.29-5.5 152.84-3.9 157.89-3.9L157.89-3.9Q161.39-3.9 164.56-4.88 167.74-5.85 169.79-7.55L169.79-7.55ZM193.94-35.4Q200.24-35.4 203.79-31.6 207.34-27.8 207.34-20.75L207.34-20.75 207.34 0 202.39 0 202.39-20.6Q202.39-25.7 199.89-28.33 197.39-30.95 192.94-30.95L192.94-30.95Q188.14-30.95 185.39-28.15 182.64-25.35 182.64-19.85L182.64-19.85 182.64 0 177.64 0 177.64-35 182.44-35 182.44-30.05Q185.99-35.4 193.94-35.4L193.94-35.4Z" opacity="1" transform="matrix(1,0,0,1,0,0)" fill="#454fbf" class="undefined-text-0" data-fill-palette-color="primary" id="text-0"></path></svg></g></svg></g></svg></g></svg></g><g><svg viewBox="0 0 56.177943825195925 107.32258186717996" height="107.32258186717996" width="56.177943825195925"><g><svg xmlns="http://www.w3.org/2000/svg" xmlns:xlink="http://www.w3.org/1999/xlink" version="1.1" x="0" y="0" viewBox="19.682355880737305 3.5 35.572967529296875 67.95874786376953" enable-background="new 0 0 75 75" xml:space="preserve" height="107.32258186717996" width="56.177943825195925" class="icon-icon-0" data-fill-palette-color="accent" id="icon-0"><path d="M21.2 59.5c-1.1-2.6-4.2-12.2 3.8-24.7C36 18 31.7 3.5 31.7 3.5S46 8.8 41.7 37.5c-1 6.5-0.9 9 2 9.4 5 0.7 3.1-19.7 3.1-19.7s3.9 2 6.8 12.1c1.5 5.3 1.8 9.5 1.6 12.5-1 18.1-16.5 19.6-16.5 19.6S26.9 73 21.2 59.5z" fill="#ffffff" data-fill-palette-color="accent"></path></svg></g></svg></g></svg></g></svg><rect width="395.52" height="85.69041326937868" fill="none" stroke="none" visibility="hidden"></rect></g></svg></g></svg>